<?xml version="1.0" standalone="no"?>
<!DOCTYPE svg PUBLIC "-//W3C//DTD SVG 20010904//EN"
 "http://www.w3.org/TR/2001/REC-SVG-20010904/DTD/svg10.dtd">
<svg version="1.0" xmlns="http://www.w3.org/2000/svg"
 width="200.000000pt" height="200.000000pt" viewBox="0 0 200.000000 200.000000"
 preserveAspectRatio="xMidYMid meet">

<g transform="translate(0.000000,200.000000) scale(0.100000,-0.100000)"
fill="#000000" stroke="none">
<path d="M856 1834 c-63 -12 -96 -24 -68 -24 7 0 12 -5 12 -10 0 -7 -7 -7 -17
-2 -23 11 -29 10 -80 -7 -23 -8 -40 -18 -37 -22 3 -5 -2 -9 -10 -9 -8 0 -18
-9 -21 -20 -7 -21 -20 -26 -30 -10 -3 6 -15 5 -31 -2 -18 -8 -23 -17 -18 -32
4 -16 3 -17 -4 -7 -9 12 -14 12 -34 -1 -53 -35 -174 -161 -126 -132 7 4 8 3 4
-5 -4 -6 -11 -9 -15 -6 -12 7 -42 -30 -38 -46 2 -8 2 -11 0 -7 -3 4 -11 1 -19
-7 -9 -8 -13 -19 -10 -23 3 -5 -4 -16 -15 -26 -13 -11 -19 -25 -16 -37 5 -17
3 -18 -10 -7 -15 12 -15 10 -3 -12 12 -23 12 -24 -3 -11 -15 12 -17 11 -17 -6
0 -10 -7 -28 -15 -39 -8 -10 -14 -23 -15 -29 0 -5 5 -3 10 5 7 12 10 8 10 -15
0 -23 -3 -27 -10 -15 -8 13 -10 12 -10 -2 0 -10 4 -18 8 -18 5 0 9 -14 9 -30
0 -21 -3 -27 -9 -18 -6 8 -7 0 -4 -22 l6 -35 -14 35 c-14 35 -14 35 -23 11 -6
-15 -6 -43 -1 -69 9 -48 3 -66 -13 -42 -8 12 -9 9 -7 -10 3 -24 6 -25 86 -28
79 -3 83 -2 77 17 -3 11 -1 22 5 26 5 3 10 14 10 24 0 28 50 172 72 209 22 36
30 90 14 95 -6 3 -8 8 -4 12 4 4 14 0 22 -8 12 -11 13 -17 3 -20 -6 -2 -8 -8
-4 -13 11 -12 27 16 19 34 -3 9 -1 13 5 9 6 -4 34 18 62 48 48 51 60 68 44 63
-5 -2 -9 0 -10 5 -6 16 -2 19 12 7 11 -9 18 -10 28 -1 8 6 17 8 20 4 4 -3 7
-2 7 4 0 5 18 18 40 29 22 10 40 23 40 27 0 5 4 6 9 2 5 -3 12 -1 16 5 4 6 11
8 16 5 5 -4 9 -1 9 4 0 6 3 10 8 9 4 -1 22 2 41 6 23 6 29 11 21 16 -8 5 2 8
26 9 21 0 56 2 77 3 l37 3 0 81 c0 104 1 103 -124 78z m-142 -55 c-5 -8 1 -10
19 -5 14 3 29 2 32 -4 7 -11 -34 -14 -60 -4 -13 5 -14 8 -3 15 18 12 20 11 12
-2z m126 -6 c0 -16 -31 -17 -53 0 -15 10 -13 12 18 13 23 0 35 -4 35 -13z
m-329 -116 c-10 -9 -11 -8 -5 6 3 10 9 15 12 12 3 -3 0 -11 -7 -18z m39 -37
c0 -5 -4 -10 -10 -10 -5 0 -10 5 -10 10 0 6 5 10 10 10 6 0 10 -4 10 -10z
m115 -30 c-3 -5 -11 -10 -16 -10 -6 0 -7 5 -4 10 3 6 11 10 16 10 6 0 7 -4 4
-10z m-95 -75 c0 -1 -12 -12 -27 -24 -18 -16 -24 -19 -20 -8 3 9 2 19 -3 22
-8 5 -15 -22 -12 -47 1 -3 -6 -12 -16 -20 -15 -11 -16 -11 -5 3 7 9 10 19 6
22 -3 4 -7 17 -9 30 -2 22 1 24 42 23 24 0 44 -1 44 -1z m-149 -160 c5 4 6 -1
2 -10 -5 -13 -7 -14 -14 -3 -5 7 -8 18 -8 23 0 6 3 4 6 -3 2 -6 9 -10 14 -7z
m-85 -99 c15 -16 18 -26 6 -26 -4 0 -13 9 -20 20 -14 23 -7 26 14 6z m31 -38
c-3 -8 -6 -5 -6 6 -1 11 2 17 5 13 3 -3 4 -12 1 -19z"/>
<path d="M1050 1766 c0 -101 6 -107 98 -103 33 1 58 -1 55 -6 -2 -4 6 -6 19
-4 12 2 17 2 11 0 -22 -7 -14 -25 7 -18 12 4 20 2 20 -5 0 -6 4 -9 9 -6 5 3
14 -1 21 -9 7 -8 21 -15 30 -15 28 0 51 -11 44 -21 -3 -5 -1 -9 5 -9 5 0 31
-20 58 -45 26 -24 52 -45 57 -45 10 0 52 -52 49 -62 -1 -3 13 -20 33 -37 19
-17 33 -35 30 -39 -3 -5 8 -35 24 -68 17 -32 30 -64 30 -70 0 -7 7 -14 15 -18
8 -3 15 -13 14 -23 0 -16 -2 -16 -10 2 -7 15 -8 13 -2 -10 4 -16 6 -49 5 -73
-2 -33 2 -44 15 -48 10 -3 26 -10 36 -15 27 -14 127 -9 127 7 0 7 -4 16 -10
19 -12 8 -13 75 -1 75 14 0 -8 94 -25 106 -12 9 -12 13 -2 17 10 3 10 7 1 17
-6 7 -9 20 -6 29 4 13 2 13 -10 -2 -13 -16 -15 -16 -21 -2 -3 9 -1 25 4 35 8
15 6 23 -10 38 -12 11 -18 26 -15 34 4 9 1 19 -6 24 -9 5 -10 2 -6 -9 3 -10 2
-17 -3 -17 -10 0 -14 19 -11 51 1 9 -5 22 -14 29 -13 11 -15 10 -10 -3 4 -8 2
-18 -4 -22 -7 -4 -8 0 -4 11 4 10 2 15 -3 11 -6 -3 -10 6 -9 21 1 26 -41 79
-57 74 -5 -1 -8 3 -8 9 0 16 -29 41 -40 34 -6 -3 -12 1 -15 9 -3 9 -7 23 -10
32 -4 13 -8 14 -21 3 -8 -7 -14 -8 -13 -3 4 21 -2 34 -15 34 -8 0 -18 5 -22
12 -4 7 -3 8 4 4 7 -4 12 -5 12 -2 0 6 -75 46 -85 46 -3 0 -3 -5 1 -12 5 -7 3
-8 -5 -4 -7 5 -10 10 -7 14 11 10 -29 31 -50 26 -12 -3 -25 -1 -28 5 -5 7 0 9
11 6 10 -3 0 4 -22 14 -22 11 -48 18 -59 15 -12 -4 -16 -2 -12 5 9 14 4 14
-30 1 -25 -10 -26 -9 -13 7 9 11 10 14 2 9 -7 -4 -18 -4 -25 0 -6 4 -25 8 -42
9 -17 1 -43 5 -58 9 l-28 8 0 -86z m425 -257 c11 -16 1 -19 -13 -3 -7 8 -8 14
-3 14 5 0 13 -5 16 -11z m120 -110 c2 -27 -10 -32 -26 -12 -12 14 -12 16 0 8
11 -6 13 -4 8 7 -6 16 2 32 12 23 2 -3 5 -15 6 -26z m182 -161 c-3 -8 -6 -5
-6 6 -1 11 2 17 5 13 3 -3 4 -12 1 -19z m10 -175 c-3 -10 -5 -4 -5 12 0 17 2
24 5 18 2 -7 2 -21 0 -30z"/>
<path d="M1785 1309 c-4 -6 -5 -12 -2 -15 2 -3 7 2 10 11 7 17 1 20 -8 4z"/>
<path d="M174 926 c3 -29 17 -92 31 -139 63 -219 169 -365 349 -481 145 -93
255 -130 391 -131 l60 0 3 60 c5 97 2 101 -75 113 -38 6 -78 13 -90 16 -13 4
-31 8 -42 10 -27 6 -98 43 -158 83 -28 18 -57 32 -65 31 -7 -2 -12 3 -11 9 2
7 -12 27 -30 45 -95 96 -168 246 -183 381 l-7 57 -90 0 -90 0 7 -54z"/>
</g>
</svg>
